<svg width="0" height="0" class="hidden">
  <symbol role="img" xmlns="http://www.w3.org/2000/svg" viewBox="0 0 24 24" id="email">
    <path d="M12 .297c-6.63 0-12 5.373-12 12 0 5.303 3.438 9.8 8.205 11.385.6.113.82-.258.82-.577 0-.285-.01-1.04-.015-2.04-3.338.724-4.042-1.61-4.042-1.61C4.422 18.07 3.633 17.7 3.633 17.7c-1.087-.744.084-.729.084-.729 1.205.084 1.838 1.236 1.838 1.236 1.07 1.835 2.809 1.305 3.495.998.108-.776.417-1.305.76-1.605-2.665-.3-5.466-1.332-5.466-5.93 0-1.31.465-2.38 1.235-3.22-.135-.303-.54-1.523.105-3.176 0 0 1.005-.322 3.3 1.23.96-.267 1.98-.399 3-.405 1.02.006 2.04.138 3 .405 2.28-1.552 3.285-1.23 3.285-1.23.645 1.653.24 2.873.12 3.176.765.84 1.23 1.91 1.23 3.22 0 4.61-2.805 5.625-5.475 5.92.42.36.81 1.096.81 2.22 0 1.606-.015 2.896-.015 3.286 0 .315.21.69.825.57C20.565 22.092 24 17.592 24 12.297c0-6.627-5.373-12-12-12"></path>
  </symbol>
  <symbol version="1.1" id="github" xmlns="http://www.w3.org/2000/svg" xmlns:xlink="http://www.w3.org/1999/xlink" x="0px" y="0px" xml:space="preserve" viewBox="0 0 330.242 330.242">
    <path d="M324.442,129.811l-41.321-33.677V42.275c0-6.065-4.935-11-11-11h-26c-6.065,0-11,4.935-11,11v14.737l-55.213-44.999
	c-3.994-3.254-9.258-5.047-14.822-5.047c-5.542,0-10.781,1.782-14.753,5.019L5.8,129.81c-6.567,5.351-6.173,10.012-5.354,12.314
	c0.817,2.297,3.448,6.151,11.884,6.151h19.791v154.947c0,11.058,8.972,20.053,20,20.053h62.5c10.935,0,19.5-8.809,19.5-20.053
	v-63.541c0-5.446,5.005-10.405,10.5-10.405h42c5.238,0,9.5,4.668,9.5,10.405v63.541c0,10.87,9.388,20.053,20.5,20.053h61.5
	c11.028,0,20-8.996,20-20.053V148.275h19.791c8.436,0,11.066-3.854,11.884-6.151C330.615,139.822,331.009,135.161,324.442,129.811z"></path>
  </symbol>
  <symbol version="1.1" id="phone" xmlns="http://www.w3.org/2000/svg" xmlns:xlink="http://www.w3.org/1999/xlink" x="0px" y="0px"
	 viewBox="0 0 60.006 60.006" style="enable-background:new 0 0 60.006 60.006;" xml:space="preserve">
<path d="M59.427,40.907c-2.008-3.796-8.98-7.912-9.287-8.092c-0.896-0.51-1.831-0.78-2.706-0.78c-1.301,0-2.366,0.596-3.011,1.68
	c-1.02,1.22-2.285,2.646-2.592,2.867c-2.378,1.611-4.237,1.429-6.295-0.629L24.05,24.467c-2.045-2.045-2.233-3.928-0.631-6.292
	c0.224-0.31,1.649-1.575,2.869-2.595c0.778-0.463,1.312-1.15,1.545-1.994c0.312-1.123,0.082-2.444-0.652-3.733
	c-0.173-0.296-4.289-7.269-8.085-9.276c-0.708-0.375-1.505-0.573-2.306-0.573c-1.318,0-2.558,0.514-3.49,1.445l-2.536,2.537
	C6.75,7.998,5.296,12.547,6.443,17.504c0.956,4.132,3.742,8.529,8.282,13.069L29.43,45.278c4.894,4.894,9.592,7.726,14.003,8.46
	c-1.075,2.505-3.565,4.264-6.46,4.264c-3.127,0-5.832-2.013-6.73-5.008l-0.904-3.014c-0.179-0.595-0.717-0.994-1.338-0.994
	s-1.159,0.399-1.338,0.995L25,55.522l-1.662-5.541c-0.179-0.595-0.717-0.994-1.338-0.994s-1.159,0.399-1.338,0.995L19,55.522
	l-1.662-5.541c-0.179-0.595-0.717-0.994-1.338-0.994c-0.621,0-1.159,0.399-1.338,0.995L13,55.522l-1.662-5.541
	c-0.179-0.595-0.717-0.994-1.338-0.994s-1.159,0.399-1.338,0.995L7,55.522l-1.662-5.541C5.159,49.387,4.621,48.987,4,48.987
	s-1.159,0.399-1.338,0.995l-2.62,8.733c-0.158,0.528,0.142,1.086,0.671,1.245C0.809,59.989,0.906,60.003,1,60.003
	c0.431,0,0.828-0.279,0.958-0.713L4,52.483l1.662,5.541C5.841,58.619,6.379,59.018,7,59.018s1.159-0.399,1.338-0.995L10,52.483
	l1.662,5.541c0.179,0.595,0.717,0.994,1.338,0.994s1.159-0.399,1.338-0.995L16,52.483l1.662,5.541
	c0.179,0.595,0.717,0.994,1.338,0.994s1.159-0.399,1.338-0.995L22,52.483l1.662,5.541c0.179,0.595,0.717,0.994,1.338,0.994
	s1.159-0.399,1.338-0.995L28,52.482l0.326,1.087c1.154,3.849,4.629,6.434,8.646,6.434c3.942,0,7.293-2.544,8.521-6.072
	c0.072,0.001,0.146,0.008,0.218,0.008c0.001,0,0,0,0.001,0c3.721,0,7.188-1.581,10.306-4.699l2.537-2.536
	C60.096,45.161,60.447,42.832,59.427,40.907z"/>

</symbol>
<symbol version="1.1" id="linkedin" xmlns="http://www.w3.org/2000/svg" xmlns:xlink="http://www.w3.org/1999/xlink" width="24px" height="24px"
	 viewBox="0 0 310 310" style="enable-background:new 0 0 310 310;" xml:space="preserve">
<g id="XMLID_801_">
	<path id="XMLID_802_" d="M72.16,99.73H9.927c-2.762,0-5,2.239-5,5v199.928c0,2.762,2.238,5,5,5H72.16c2.762,0,5-2.238,5-5V104.73
		C77.16,101.969,74.922,99.73,72.16,99.73z"/>
	<path id="XMLID_803_" d="M41.066,0.341C18.422,0.341,0,18.743,0,41.362C0,63.991,18.422,82.4,41.066,82.4
		c22.626,0,41.033-18.41,41.033-41.038C82.1,18.743,63.692,0.341,41.066,0.341z"/>
	<path id="XMLID_804_" d="M230.454,94.761c-24.995,0-43.472,10.745-54.679,22.954V104.73c0-2.761-2.238-5-5-5h-59.599
		c-2.762,0-5,2.239-5,5v199.928c0,2.762,2.238,5,5,5h62.097c2.762,0,5-2.238,5-5v-98.918c0-33.333,9.054-46.319,32.29-46.319
		c25.306,0,27.317,20.818,27.317,48.034v97.204c0,2.762,2.238,5,5,5H305c2.762,0,5-2.238,5-5V194.995
		C310,145.43,300.549,94.761,230.454,94.761z"/>

</symbol>
 <svg version="1.1" id="home" xmlns="http://www.w3.org/2000/svg" xmlns:xlink="http://www.w3.org/1999/xlink" width="24px" height="24px" viewBox="0 0 330.242 330.242" style="enable-background: new 0 0 330.242 330.242" xml:space="preserve">
    <path d="M324.442,129.811l-41.321-33.677V42.275c0-6.065-4.935-11-11-11h-26c-6.065,0-11,4.935-11,11v14.737l-55.213-44.999
c-3.994-3.254-9.258-5.047-14.822-5.047c-5.542,0-10.781,1.782-14.753,5.019L5.8,129.81c-6.567,5.351-6.173,10.012-5.354,12.314
c0.817,2.297,3.448,6.151,11.884,6.151h19.791v154.947c0,11.058,8.972,20.053,20,20.053h62.5c10.935,0,19.5-8.809,19.5-20.053
v-63.541c0-5.446,5.005-10.405,10.5-10.405h42c5.238,0,9.5,4.668,9.5,10.405v63.541c0,10.87,9.388,20.053,20.5,20.053h61.5
c11.028,0,20-8.996,20-20.053V148.275h19.791c8.436,0,11.066-3.854,11.884-6.151C330.615,139.822,331.009,135.161,324.442,129.811z"/>
  </svg>
  <symbol version="1.1" id="instagram" xmlns="http://www.w3.org/2000/svg" xmlns:xlink="http://www.w3.org/1999/xlink" x="0px" y="0px" xml:space="preserve" viewBox="0 0 60.006 60.006">
    <path d="M59.427,40.907c-2.008-3.796-8.98-7.912-9.287-8.092c-0.896-0.51-1.831-0.78-2.706-0.78c-1.301,0-2.366,0.596-3.011,1.68
	c-1.02,1.22-2.285,2.646-2.592,2.867c-2.378,1.611-4.237,1.429-6.295-0.629L24.05,24.467c-2.045-2.045-2.233-3.928-0.631-6.292
	c0.224-0.31,1.649-1.575,2.869-2.595c0.778-0.463,1.312-1.15,1.545-1.994c0.312-1.123,0.082-2.444-0.652-3.733
	c-0.173-0.296-4.289-7.269-8.085-9.276c-0.708-0.375-1.505-0.573-2.306-0.573c-1.318,0-2.558,0.514-3.49,1.445l-2.536,2.537
	C6.75,7.998,5.296,12.547,6.443,17.504c0.956,4.132,3.742,8.529,8.282,13.069L29.43,45.278c4.894,4.894,9.592,7.726,14.003,8.46
	c-1.075,2.505-3.565,4.264-6.46,4.264c-3.127,0-5.832-2.013-6.73-5.008l-0.904-3.014c-0.179-0.595-0.717-0.994-1.338-0.994
	s-1.159,0.399-1.338,0.995L25,55.522l-1.662-5.541c-0.179-0.595-0.717-0.994-1.338-0.994s-1.159,0.399-1.338,0.995L19,55.522
	l-1.662-5.541c-0.179-0.595-0.717-0.994-1.338-0.994c-0.621,0-1.159,0.399-1.338,0.995L13,55.522l-1.662-5.541
	c-0.179-0.595-0.717-0.994-1.338-0.994s-1.159,0.399-1.338,0.995L7,55.522l-1.662-5.541C5.159,49.387,4.621,48.987,4,48.987
	s-1.159,0.399-1.338,0.995l-2.62,8.733c-0.158,0.528,0.142,1.086,0.671,1.245C0.809,59.989,0.906,60.003,1,60.003
	c0.431,0,0.828-0.279,0.958-0.713L4,52.483l1.662,5.541C5.841,58.619,6.379,59.018,7,59.018s1.159-0.399,1.338-0.995L10,52.483
	l1.662,5.541c0.179,0.595,0.717,0.994,1.338,0.994s1.159-0.399,1.338-0.995L16,52.483l1.662,5.541
	c0.179,0.595,0.717,0.994,1.338,0.994s1.159-0.399,1.338-0.995L22,52.483l1.662,5.541c0.179,0.595,0.717,0.994,1.338,0.994
	s1.159-0.399,1.338-0.995L28,52.482l0.326,1.087c1.154,3.849,4.629,6.434,8.646,6.434c3.942,0,7.293-2.544,8.521-6.072
	c0.072,0.001,0.146,0.008,0.218,0.008c0.001,0,0,0,0.001,0c3.721,0,7.188-1.581,10.306-4.699l2.537-2.536
	C60.096,45.161,60.447,42.832,59.427,40.907z"></path>
  </symbol>
</svg>